<svg width="27" height="17" viewBox="0 0 27 17" fill="none" xmlns="http://www.w3.org/2000/svg">
<path d="M17.1502 1.81805H9.84979V15.1819H17.1502V1.81805Z" fill="#FF5F00"/>
<path d="M10.3135 8.50026C10.3135 5.90303 11.4955 3.42387 13.4886 1.81831C9.87318 -1.08585 4.63541 -0.448355 1.78477 3.25859C-1.06587 6.94192 -0.440123 12.278 3.1985 15.1822C6.23456 17.6141 10.4758 17.6141 13.5118 15.1822C11.4955 13.5766 10.3135 11.0975 10.3135 8.50026Z" fill="#EB001B"/>
<path d="M27 8.50001C27 13.1986 23.2687 17 18.6567 17C16.7794 17 14.9717 16.3625 13.5116 15.182C17.127 12.2778 17.7528 6.94168 14.9022 3.23473C14.485 2.71529 14.0215 2.21946 13.5116 1.81807C17.127 -1.0861 22.388 -0.448599 25.2155 3.25835C26.3743 4.74585 27 6.58751 27 8.50001Z" fill="#F79E1B"/>
<path d="M26.212 13.7653V13.482H26.3279V13.4348H26.0498V13.482H26.1657V13.7653H26.212ZM26.7451 13.7653V13.4348H26.6524L26.5597 13.6709L26.467 13.4348H26.3743V13.7653H26.4438V13.5056L26.5365 13.7181H26.606L26.6987 13.5056V13.7653H26.7451Z" fill="#F79E1B"/>
</svg>
