<svg width="16" height="10" viewBox="0 0 16 10" fill="none" xmlns="http://www.w3.org/2000/svg">
<path d="M14.6287 2.77323C15.0317 3.17723 15.4117 3.63723 15.7437 4.11723C15.7997 4.19832 15.8391 4.28963 15.8597 4.38596C15.8804 4.48229 15.8819 4.58174 15.8641 4.67864C15.8463 4.77553 15.8096 4.86798 15.7561 4.9507C15.7026 5.03342 15.6333 5.10478 15.5522 5.16073C15.4711 5.21667 15.3798 5.25609 15.2835 5.27674C15.1872 5.2974 15.0877 5.29887 14.9908 5.28109C14.8939 5.26331 14.8015 5.22662 14.7187 5.17311C14.636 5.1196 14.5647 5.05032 14.5087 4.96923C13.8477 4.00293 12.9818 3.19418 11.9728 2.60051C10.9637 2.00683 9.83618 1.64281 8.67045 1.53436C7.50472 1.4259 6.32941 1.57566 5.22813 1.973C4.12686 2.37033 3.12667 3.00547 2.29872 3.83323C1.97872 4.15523 1.65872 4.54523 1.36672 4.96623C1.31058 5.04719 1.23904 5.1163 1.15619 5.16961C1.07334 5.22292 0.980806 5.25939 0.883862 5.27695C0.786918 5.2945 0.687466 5.29278 0.591185 5.2719C0.494904 5.25101 0.403679 5.21137 0.322719 5.15523C0.159213 5.04185 0.0474438 4.86816 0.0119995 4.67237C-0.00555082 4.57542 -0.00383455 4.47597 0.0170501 4.37969C0.0379348 4.28341 0.0775787 4.19219 0.133719 4.11123C0.473719 3.62123 0.849719 3.16123 1.23872 2.77323C2.11791 1.89401 3.16167 1.19657 4.3104 0.720739C5.45913 0.244908 6.69034 0 7.93372 0C9.1771 0 10.4083 0.244908 11.557 0.720739C12.7058 1.19657 13.7495 1.89401 14.6287 2.77323ZM12.4887 4.66123C12.9617 5.13423 13.3687 5.70623 13.6807 6.31423C13.7284 6.40214 13.758 6.49869 13.7678 6.59821C13.7776 6.69773 13.7674 6.79821 13.7378 6.89372C13.7082 6.98924 13.6598 7.07787 13.5954 7.15441C13.531 7.23094 13.452 7.29383 13.363 7.33938C13.274 7.38493 13.1767 7.41221 13.077 7.41962C12.9773 7.42704 12.8771 7.41444 12.7823 7.38256C12.6875 7.35068 12.6001 7.30016 12.5251 7.23399C12.4501 7.16781 12.3891 7.08732 12.3457 6.99723C12.1071 6.52757 11.7974 6.09752 11.4277 5.72223C10.8755 5.17004 10.2004 4.75654 9.4576 4.5156C8.7148 4.27466 7.92548 4.21314 7.15432 4.33607C6.38316 4.459 5.65209 4.7629 5.02102 5.22285C4.38995 5.6828 3.87684 6.28573 3.52372 6.98223C3.43102 7.15451 3.27467 7.28376 3.08803 7.3424C2.90138 7.40103 2.69921 7.38441 2.52464 7.29609C2.35007 7.20776 2.21693 7.05471 2.15361 6.8696C2.09029 6.68449 2.10182 6.48196 2.18572 6.30523C2.64582 5.39717 3.31454 4.61105 4.13708 4.0113C4.95962 3.41155 5.91256 3.01523 6.91782 2.85483C7.92307 2.69442 8.95203 2.7745 9.92037 3.08849C10.8887 3.40248 11.7689 3.94145 12.4887 4.66123ZM10.8537 7.05123C11.2167 7.41423 11.5157 7.85923 11.7237 8.33323C11.8035 8.51556 11.8077 8.72214 11.7352 8.90752C11.6627 9.0929 11.5196 9.2419 11.3372 9.32173C11.1549 9.40156 10.9483 9.40568 10.7629 9.3332C10.5775 9.26072 10.4285 9.11756 10.3487 8.93523C10.2154 8.62885 10.0269 8.34955 9.79272 8.11123C9.54849 7.86692 9.25852 7.67311 8.93938 7.54089C8.62023 7.40866 8.27817 7.34061 7.93272 7.34061C7.58727 7.34061 7.2452 7.40866 6.92606 7.54089C6.60692 7.67311 6.31695 7.86692 6.07272 8.11123C5.84131 8.34615 5.6558 8.62221 5.52572 8.92523C5.4876 9.01743 5.43146 9.10109 5.3606 9.17132C5.28974 9.24156 5.20558 9.29695 5.11304 9.33425C5.02051 9.37155 4.92146 9.39002 4.8217 9.38856C4.72194 9.38711 4.62348 9.36577 4.53207 9.32578C4.44066 9.2858 4.35815 9.22798 4.28937 9.15571C4.22058 9.08345 4.16691 8.99818 4.13149 8.90491C4.09607 8.81164 4.07961 8.71224 4.08309 8.61253C4.08656 8.51282 4.10989 8.41481 4.15172 8.32423C4.35717 7.85005 4.64876 7.41808 5.01172 7.05023C5.39525 6.66653 5.85062 6.36215 6.35181 6.15448C6.85301 5.94681 7.39021 5.83993 7.93272 5.83993C8.47523 5.83993 9.01243 5.94681 9.51363 6.15448C10.0148 6.36215 10.4702 6.66753 10.8537 7.05123Z" fill="#394260"/>
</svg>
